<svg width="146" height="146" viewBox="0 0 146 146" fill="none" xmlns="http://www.w3.org/2000/svg">
<path fill-rule="evenodd" clip-rule="evenodd" d="M59.2062 48.7131C52.0744 48.7131 46.293 54.4946 46.293 61.6264V121.751C46.293 122.605 46.3758 123.439 46.5339 124.246H71.8785C72.0366 123.439 72.1194 122.605 72.1194 121.751V61.6263C72.1194 54.4946 66.338 48.7131 59.2062 48.7131Z" fill="#C8D5DD"/>
<path fill-rule="evenodd" clip-rule="evenodd" d="M72.1202 71.6317C64.9885 71.6317 59.207 77.4132 59.207 84.5449V124.246H85.0335V84.5449C85.0335 77.4132 79.252 71.6317 72.1202 71.6317Z" fill="#A6BCCA"/>
<path fill-rule="evenodd" clip-rule="evenodd" d="M85.0343 92.48C77.9025 92.48 72.1211 98.2614 72.1211 105.393V124.246H97.9475V105.393C97.9475 98.2614 92.1661 92.48 85.0343 92.48Z" fill="#5C7F94"/>
<path d="M68.5681 34.9258C67.792 34.9258 67.1039 34.7654 66.5038 34.4446C65.9036 34.1135 65.4328 33.6686 65.0914 33.1098C64.7499 32.5407 64.5792 31.9043 64.5792 31.2007C64.5792 30.9627 64.6464 30.7713 64.7809 30.6264C64.9258 30.4712 65.0965 30.3936 65.2931 30.3936C65.5001 30.3936 65.6708 30.4712 65.8053 30.6264C65.9398 30.7713 66.0071 30.9627 66.0071 31.2007C66.0071 31.625 66.1158 32.0182 66.333 32.3803C66.5503 32.7321 66.8452 33.0167 67.2177 33.234C67.5903 33.4409 68.0093 33.5444 68.475 33.5444C69.1579 33.5444 69.7063 33.3582 70.1202 32.9856C70.5444 32.6028 70.7565 32.0699 70.7565 31.387C70.7565 30.9524 70.6634 30.5644 70.4772 30.2229C70.2909 29.8711 70.0374 29.5917 69.7166 29.3848C69.3959 29.1778 69.0337 29.0743 68.6302 29.0743C68.4025 29.0743 68.2111 28.9967 68.0559 28.8415C67.911 28.6863 67.8386 28.4949 67.8386 28.2672C67.8386 28.0396 67.911 27.8534 68.0559 27.7085C68.2111 27.5533 68.4025 27.4757 68.6302 27.4757C68.9199 27.4757 69.1993 27.4032 69.4683 27.2584C69.7373 27.1032 69.9598 26.9014 70.1357 26.6531C70.3116 26.3944 70.3996 26.1046 70.3996 25.7839C70.3996 25.3286 70.234 24.9457 69.9029 24.6353C69.5718 24.3249 69.1475 24.1697 68.6302 24.1697C68.237 24.1697 67.8748 24.2473 67.5437 24.4025C67.2229 24.5577 66.9642 24.7647 66.7676 25.0233C66.5814 25.282 66.4883 25.5718 66.4883 25.8925C66.4883 26.1305 66.421 26.3323 66.2865 26.4978C66.152 26.6531 65.9812 26.7307 65.7743 26.7307C65.5777 26.7307 65.407 26.6582 65.2621 26.5134C65.1276 26.3582 65.0603 26.1667 65.0603 25.9391C65.0603 25.3389 65.2155 24.8009 65.526 24.3249C65.8364 23.8489 66.2606 23.4764 66.7987 23.2074C67.3367 22.928 67.9369 22.7883 68.5991 22.7883C69.2096 22.7883 69.758 22.9228 70.2444 23.1919C70.741 23.4505 71.1291 23.8075 71.4084 24.2628C71.6982 24.7078 71.843 25.2148 71.843 25.7839C71.843 26.1874 71.7499 26.5444 71.5636 26.8548C71.3877 27.1653 71.1601 27.4343 70.8807 27.6619C70.6013 27.8792 70.3064 28.0603 69.996 28.2052C70.8135 28.4845 71.4033 28.9088 71.7654 29.4779C72.1379 30.0366 72.3242 30.6782 72.3242 31.4025C72.3242 32.0751 72.1534 32.6804 71.812 33.2185C71.4705 33.7462 71.0152 34.1652 70.4461 34.4757C69.877 34.7757 69.251 34.9258 68.5681 34.9258ZM77.5025 34.9258C76.3229 34.9258 75.4072 34.3929 74.7553 33.3271C74.1137 32.251 73.793 30.761 73.793 28.857C73.793 26.9428 74.1137 25.4528 74.7553 24.387C75.4072 23.3212 76.3229 22.7883 77.5025 22.7883C78.2889 22.7883 78.9563 23.0367 79.5047 23.5333C80.0635 24.0197 80.4877 24.7181 80.7775 25.6287C81.0672 26.5289 81.212 27.605 81.212 28.857C81.212 30.1091 81.0672 31.1904 80.7775 32.1009C80.4877 33.0012 80.0635 33.6996 79.5047 34.1963C78.9563 34.6826 78.2889 34.9258 77.5025 34.9258ZM77.5025 33.3116C77.9785 33.3116 78.3717 33.1202 78.6821 32.7373C78.9925 32.3441 79.2253 31.8112 79.3806 31.1386C79.5358 30.4661 79.6134 29.7055 79.6134 28.857C79.6134 28.0086 79.5358 27.248 79.3806 26.5755C79.2253 25.9029 78.9925 25.37 78.6821 24.9768C78.3717 24.5836 77.9785 24.387 77.5025 24.387C77.0265 24.387 76.6333 24.5836 76.3229 24.9768C76.0125 25.3596 75.7797 25.8874 75.6245 26.5599C75.4693 27.2325 75.3916 27.9982 75.3916 28.857C75.3916 29.7159 75.4693 30.4816 75.6245 31.1542C75.7797 31.8267 76.0125 32.3545 76.3229 32.7373C76.6437 33.1202 77.0369 33.3116 77.5025 33.3116Z" fill="#F390A8"/>
</svg>
