<svg width="145" height="146" viewBox="0 0 145 146" fill="none" xmlns="http://www.w3.org/2000/svg">
<rect x="66.0625" y="44.5133" width="12.473" height="57.1739" rx="6.23649" fill="#C8D5DD"/>
<path d="M73.3185 123.114L77.1913 117.21C77.6291 116.542 77.147 115.656 76.3488 115.661L68.5633 115.711C67.7669 115.716 67.2957 116.604 67.7382 117.266L71.651 123.121C72.049 123.716 72.9257 123.712 73.3185 123.114Z" fill="#F390A8"/>
<rect x="73.9297" y="120.915" width="3.18631" height="13.4524" rx="1.59315" transform="rotate(-180 73.9297 120.915)" fill="#F390A8"/>
<path d="M71.3455 23.0869L67.4727 28.9909C67.0349 29.6583 67.5171 30.5445 68.3153 30.5394L76.1008 30.4898C76.8971 30.4847 77.3683 29.5962 76.9258 28.9341L73.0131 23.0797C72.6151 22.4842 71.7384 22.488 71.3455 23.0869Z" fill="#F390A8"/>
<rect x="70.7344" y="25.2859" width="3.18631" height="13.4524" rx="1.59315" fill="#F390A8"/>
</svg>
