<svg width="146" height="146" viewBox="0 0 146 146" fill="none" xmlns="http://www.w3.org/2000/svg">
<path fill-rule="evenodd" clip-rule="evenodd" d="M55.4639 27.8202C55.4704 27.8114 55.4769 27.8027 65.7635 35.4637L55.4769 27.8027C59.7079 22.1216 67.7433 20.946 73.4245 25.1771C78.8904 29.2479 80.1856 36.8404 76.5076 42.4694C76.4928 42.5012 76.4746 42.5412 76.4537 42.5895C76.274 43.0045 75.8557 44.1053 75.5471 46.0103C74.9348 49.7894 74.6938 57.1316 78.0933 68.9818C82.3827 83.9339 82.5695 93.5632 81.3492 102.471C80.9228 105.584 80.4652 108.033 80.0476 110.267C79.2444 114.566 78.5894 118.072 78.5894 123.985C78.5894 124.072 78.5885 124.16 78.5868 124.246H52.9401C52.9383 124.16 52.9374 124.072 52.9374 123.985C52.9374 115.624 54.2433 108.512 55.1807 103.407C55.4941 101.701 55.7662 100.219 55.9347 98.9892C56.6336 93.8875 56.821 87.8552 53.436 76.0554C49.1611 61.1536 48.9195 49.9684 50.2253 41.9081C50.8757 37.8933 51.896 34.7464 52.9152 32.3936C53.4228 31.2216 53.9246 30.2594 54.3701 29.4958C54.5926 29.1144 54.8004 28.7835 54.9872 28.5017C55.0805 28.3608 55.1686 28.2322 55.2505 28.1157C55.2914 28.0575 55.3308 28.0023 55.3686 27.9502C55.3875 27.9241 55.4059 27.8988 55.424 27.8742L55.4507 27.8379L55.4639 27.8202Z" fill="#C8D5DD"/>
<path d="M66.0802 22.9265C68.1954 20.5386 71.8459 20.3177 74.2337 22.4329L87.5603 34.2381C88.3245 34.915 88.3952 36.0832 87.7183 36.8473L85.1019 39.8009C82.902 42.2842 79.1055 42.5141 76.6221 40.3142L63.8144 28.9686C62.8592 28.1225 62.7708 26.6623 63.6169 25.7072L66.0802 22.9265Z" fill="#A6BCCA"/>
<rect x="73.7031" y="78.6758" width="16.976" height="20.216" rx="8.48798" transform="rotate(-49.3685 73.7031 78.6758)" fill="#F390A8"/>
<rect x="65.5547" y="71.542" width="6.45543" height="25.067" rx="3.22771" transform="rotate(-49.9823 65.5547 71.542)" fill="#F390A8"/>
<path d="M69.9062 58.3002L69.9089 61.3123L69.9062 64.507" stroke="#F390A8" stroke-width="3" stroke-linecap="round"/>
<path d="M61.168 61.4055L63.2998 63.5335L65.5569 65.7944" stroke="#F390A8" stroke-width="3" stroke-linecap="round"/>
<path d="M56.9727 70.5067L59.9848 70.504L63.1795 70.5067" stroke="#F390A8" stroke-width="3" stroke-linecap="round"/>
<rect x="74.8398" y="72.0928" width="6.45543" height="17.3389" rx="3.22771" transform="rotate(-49.231 74.8398 72.0928)" fill="#F390A8"/>
<rect x="74.8242" y="84.7406" width="6.45543" height="12.1593" rx="3.22771" transform="rotate(-53.1497 74.8242 84.7406)" fill="#F390A8"/>
<rect x="79.3242" y="69.6346" width="6.45543" height="17.3389" rx="3.22771" transform="rotate(-49.3685 79.3242 69.6346)" fill="#F390A8"/>
</svg>
