<svg width="146" height="146" viewBox="0 0 146 146" fill="none" xmlns="http://www.w3.org/2000/svg">
<path fill-rule="evenodd" clip-rule="evenodd" d="M92.9445 55.5679C99.7257 53.7326 103.735 46.7474 101.9 39.9662C100.064 33.185 93.0793 29.1755 86.2981 31.0109C62.8131 37.3671 49.0967 50.733 41.9177 67.5471C35.1798 83.3281 34.6445 101.238 34.6445 116.028C34.6445 116.611 34.6838 117.185 34.7597 117.747H59.9699C60.0459 117.185 60.0851 116.611 60.0851 116.028C60.0851 101.103 60.8424 88.012 65.3149 77.5368C69.3464 68.0946 76.7582 59.9487 92.9445 55.5679Z" fill="#C8D5DD"/>
<path d="M63.5969 56.5072C63.5969 56.5072 70.4647 55.4778 78.907 57.4652C86.3155 59.2092 91.5656 62.9146 91.5656 62.9146" stroke="#F390A8" stroke-width="1.77491" stroke-linecap="round"/>
<path d="M61.9731 54.7534C62.8028 54.1596 63.9273 54.1948 64.7182 54.8394V54.8394C66.3949 56.206 65.3806 58.9207 63.2186 58.8529V58.8529C61.0565 58.7852 60.2141 56.0123 61.9731 54.7534V54.7534Z" fill="#F390A8"/>
<rect x="91.4766" y="71.2137" width="16.4445" height="19.5832" rx="8.22227" transform="rotate(-23.3719 91.4766 71.2137)" fill="#F390A8"/>
<rect x="87.4102" y="61.5416" width="6.25335" height="24.2823" rx="3.12667" transform="rotate(-23.9857 87.4102 61.5416)" fill="#F390A8"/>
<rect x="95.2617" y="65.9646" width="6.25335" height="16.7961" rx="3.12667" transform="rotate(-23.2344 95.2617 65.9646)" fill="#F390A8"/>
<rect x="89.875" y="76.9698" width="6.25335" height="11.7787" rx="3.12667" transform="rotate(-27.1531 89.875 76.9698)" fill="#F390A8"/>
<rect x="100.203" y="65.7277" width="6.25335" height="16.7961" rx="3.12667" transform="rotate(-23.3719 100.203 65.7277)" fill="#F390A8"/>
<path d="M83.192 58.1648L80.4788 54.9883C80.1721 54.6292 79.589 54.7565 79.4598 55.2108L78.2003 59.6416C78.0715 60.0948 78.4982 60.5094 78.9475 60.3675L82.9203 59.1132C83.3244 58.9856 83.4673 58.487 83.192 58.1648Z" fill="#F390A8"/>
<path d="M97.6548 33.9717C100.652 33.2202 103.691 35.0409 104.443 38.0383L108.636 54.7668C108.877 55.7259 108.294 56.6984 107.335 56.9389L103.627 57.8683C100.51 58.6498 97.3496 56.7563 96.5681 53.639L92.5376 37.5618C92.2371 36.3629 92.9653 35.1473 94.1643 34.8467L97.6548 33.9717Z" fill="#A6BCCA"/>
</svg>
